<svg id="svg" version="1.1" xmlns="http://www.w3.org/2000/svg" xmlns:xlink="http://www.w3.org/1999/xlink" width="400" height="400" viewBox="0, 0, 400,400"><g id="svgg"><path id="path0" d="M188.200 15.076 C 181.468 15.521,170.934 17.654,165.744 19.624 C 163.513 20.471,159.823 21.631,157.544 22.201 C 152.316 23.510,150.591 24.152,146.546 26.293 C 144.757 27.241,142.053 28.438,140.539 28.953 C 137.210 30.085,134.922 31.224,132.000 33.202 C 130.790 34.022,128.352 35.420,126.583 36.309 C 124.814 37.198,122.474 38.627,121.383 39.484 C 120.292 40.341,118.350 41.639,117.067 42.369 C 115.783 43.100,113.533 44.725,112.067 45.982 C 110.600 47.239,108.248 49.026,106.841 49.954 C 102.510 52.809,88.319 66.301,84.073 71.600 C 83.279 72.590,81.620 74.480,80.385 75.800 C 79.150 77.120,77.806 78.740,77.398 79.400 C 76.990 80.060,76.165 81.140,75.564 81.800 C 73.641 83.913,66.575 94.518,65.466 96.955 C 64.876 98.251,63.517 100.501,62.446 101.955 C 61.374 103.410,60.095 105.410,59.604 106.400 C 59.112 107.390,57.812 109.675,56.715 111.477 C 53.208 117.238,54.480 120.227,60.000 119.199 C 60.990 119.015,70.350 118.811,80.800 118.745 L 99.800 118.627 101.698 119.548 C 105.213 121.254,106.369 123.870,105.582 128.337 C 104.406 135.010,105.136 142.338,107.814 150.742 C 109.551 156.193,115.124 163.202,127.184 175.101 C 159.489 206.976,160.959 208.529,164.412 214.440 C 165.106 215.628,166.389 217.456,167.262 218.502 C 168.180 219.601,169.600 222.190,170.622 224.631 C 171.596 226.955,173.013 229.969,173.770 231.328 C 177.671 238.326,179.503 256.765,177.693 270.800 C 175.466 288.058,175.402 288.374,173.183 292.812 C 172.575 294.028,171.490 296.797,170.771 298.965 C 170.001 301.287,168.781 303.911,167.802 305.353 C 166.887 306.699,165.352 309.288,164.389 311.107 C 160.572 318.318,149.506 329.871,142.800 333.648 C 141.150 334.577,138.855 336.048,137.701 336.917 C 136.546 337.786,133.852 339.197,131.715 340.054 C 129.577 340.911,126.652 342.321,125.214 343.188 C 120.243 346.184,115.696 347.250,108.200 347.177 C 103.217 347.128,102.492 347.305,101.961 348.703 C 101.186 350.741,106.203 355.814,111.567 358.415 C 113.015 359.117,115.370 360.640,116.800 361.799 C 118.230 362.957,120.750 364.577,122.400 365.399 C 124.050 366.220,126.210 367.468,127.200 368.172 C 130.076 370.217,132.501 371.540,134.863 372.353 C 136.073 372.769,138.668 374.090,140.631 375.289 C 144.733 377.794,145.475 378.112,149.693 379.180 C 151.395 379.611,154.095 380.532,155.693 381.226 C 163.293 384.525,164.343 384.870,169.000 385.588 C 173.382 386.265,175.889 386.718,189.400 389.281 C 193.327 390.025,195.283 390.115,207.600 390.115 L 221.400 390.115 229.600 388.672 C 249.748 385.125,253.466 384.290,256.955 382.521 C 258.049 381.967,261.923 380.530,265.564 379.328 C 270.074 377.839,273.206 376.531,275.392 375.223 C 277.156 374.167,280.092 372.813,281.917 372.213 C 284.314 371.425,286.032 370.515,288.117 368.926 C 289.702 367.717,292.350 366.041,294.000 365.199 C 295.650 364.358,297.990 362.816,299.200 361.773 C 300.410 360.729,302.624 359.088,304.120 358.127 C 305.616 357.166,307.596 355.700,308.520 354.868 C 309.444 354.037,311.190 352.663,312.400 351.815 C 317.264 348.406,333.105 332.095,334.589 328.967 C 335.671 326.686,335.630 267.228,334.545 264.940 C 333.225 262.159,335.081 262.315,303.420 262.316 C 274.990 262.317,274.821 262.322,273.457 263.165 C 270.770 264.825,270.857 263.665,271.198 293.400 C 271.518 321.340,271.485 322.163,269.787 327.825 C 268.244 332.972,265.891 335.752,261.258 337.903 L 259.117 338.897 243.279 338.876 L 227.441 338.855 224.459 337.341 C 220.525 335.345,217.944 332.813,216.960 329.985 C 215.756 326.524,215.772 146.707,216.977 143.031 C 218.340 138.871,222.405 134.911,226.872 133.391 C 230.138 132.280,257.020 132.692,260.000 133.899 C 265.894 136.286,270.016 141.923,271.152 149.147 C 271.354 150.430,271.377 162.592,271.207 177.400 C 270.898 204.156,270.919 204.608,272.527 206.342 C 274.112 208.053,274.387 208.068,303.923 208.076 C 331.124 208.082,332.484 208.048,333.264 207.342 C 335.285 205.513,335.230 206.401,335.181 175.892 C 335.131 144.261,335.000 145.934,337.855 141.695 C 342.804 134.347,349.019 131.705,358.040 133.116 C 366.921 134.504,368.361 129.724,362.074 119.725 C 361.218 118.363,359.934 115.573,359.220 113.525 C 358.507 111.476,357.280 108.903,356.495 107.806 C 355.709 106.710,354.272 104.100,353.301 102.007 C 352.329 99.915,350.923 97.456,350.175 96.544 C 349.428 95.632,347.941 93.459,346.872 91.717 C 345.802 89.974,344.169 87.570,343.244 86.374 C 342.318 85.178,340.482 82.760,339.165 81.000 C 333.260 73.112,332.076 71.700,327.477 67.062 C 320.631 60.157,310.486 50.770,308.159 49.188 C 307.082 48.455,305.323 47.076,304.251 46.122 C 303.179 45.169,300.919 43.670,299.229 42.791 C 297.539 41.911,295.099 40.299,293.808 39.207 C 292.402 38.018,290.164 36.679,288.230 35.869 C 286.453 35.125,283.544 33.525,281.764 32.312 C 279.664 30.882,277.348 29.723,275.164 29.010 C 273.314 28.406,270.475 27.196,268.856 26.321 C 264.982 24.229,261.664 23.006,256.639 21.818 C 254.371 21.283,251.005 20.221,249.158 19.460 C 245.080 17.780,235.303 15.757,228.600 15.207 C 224.278 14.852,193.122 14.751,188.200 15.076 M176.200 60.048 C 180.098 61.127,181.211 62.918,181.439 68.476 C 181.759 76.260,182.159 76.499,194.593 76.330 C 210.629 76.113,211.664 77.249,211.388 94.758 C 211.123 111.554,210.816 111.807,191.400 111.200 C 182.584 110.925,181.608 111.665,181.602 118.627 C 181.595 128.039,179.013 129.773,165.204 129.642 C 151.452 129.511,149.600 128.118,149.600 117.903 C 149.600 111.106,148.681 110.578,137.994 111.221 C 122.533 112.152,121.307 110.897,121.157 94.000 C 121.012 77.612,122.330 76.169,137.280 76.347 C 148.746 76.483,149.196 76.213,149.199 69.197 C 149.201 63.548,150.078 61.463,153.000 60.165 C 154.549 59.476,173.787 59.379,176.200 60.048 M46.301 140.317 C 43.494 143.311,41.602 149.727,40.629 159.548 C 40.273 163.150,39.331 170.260,38.537 175.348 C 36.231 190.121,36.258 214.792,38.598 229.389 C 39.128 232.695,39.851 237.642,40.204 240.381 C 41.200 248.088,41.847 250.993,43.964 257.253 C 45.042 260.442,46.293 264.749,46.743 266.825 C 47.774 271.577,48.343 273.156,50.194 276.400 C 51.010 277.830,52.129 280.440,52.681 282.200 C 54.848 289.106,56.477 291.373,60.302 292.804 C 66.109 294.976,95.967 292.552,101.845 289.431 C 103.719 288.436,107.436 285.755,110.400 283.259 C 112.223 281.724,116.617 273.986,117.383 270.962 C 118.427 266.837,118.413 253.859,117.362 251.600 C 115.347 247.271,103.128 234.580,88.403 221.522 C 78.962 213.151,66.481 199.929,62.800 194.400 C 61.848 192.970,60.557 191.141,59.930 190.336 C 56.208 185.556,51.615 174.875,50.409 168.196 C 48.989 160.330,48.856 158.222,49.297 150.600 C 49.864 140.795,48.913 137.532,46.301 140.317 " stroke="none" fill="#eff6f9" fill-rule="evenodd"></path><path id="path1" d="M0.000 200.000 L 0.000 400.000 200.000 400.000 L 400.000 400.000 400.000 200.000 L 400.000 0.000 200.000 0.000 L 0.000 0.000 0.000 200.000 M229.000 10.008 C 231.860 10.448,235.169 11.088,236.353 11.430 C 237.537 11.773,240.507 12.310,242.953 12.624 C 248.796 13.373,251.610 14.131,257.400 16.512 C 260.040 17.598,263.870 19.002,265.912 19.632 C 269.874 20.854,284.206 27.715,287.200 29.823 C 288.190 30.520,290.488 31.857,292.308 32.794 C 294.127 33.731,296.813 35.452,298.277 36.618 C 299.741 37.785,301.915 39.248,303.108 39.870 C 304.301 40.491,306.465 41.990,307.916 43.200 C 309.368 44.410,311.646 46.279,312.978 47.354 C 317.819 51.260,334.550 67.935,336.503 70.800 C 337.177 71.790,338.660 73.590,339.797 74.800 C 340.934 76.010,342.373 77.810,342.995 78.800 C 343.617 79.790,344.901 81.489,345.847 82.575 C 346.794 83.662,348.109 85.564,348.769 86.802 C 349.429 88.040,350.880 90.301,351.993 91.827 C 353.107 93.352,354.853 96.220,355.873 98.200 C 356.893 100.180,358.306 102.520,359.013 103.400 C 359.721 104.280,361.114 107.074,362.111 109.609 C 363.107 112.144,364.801 115.664,365.874 117.432 C 369.197 122.903,371.927 130.782,371.378 133.318 C 370.498 137.381,368.489 138.018,356.758 137.952 C 345.555 137.889,344.687 138.272,341.541 144.657 C 340.253 147.273,340.200 147.560,340.208 151.990 C 340.212 154.525,340.262 167.580,340.320 181.000 C 340.436 208.108,340.423 208.263,337.911 210.686 C 335.568 212.947,336.582 212.881,303.800 212.895 C 268.496 212.909,269.608 213.026,267.495 209.074 L 266.600 207.400 266.565 177.200 L 266.529 147.000 265.491 145.000 C 264.332 142.767,261.257 139.457,259.497 138.547 C 258.540 138.052,255.746 137.943,243.031 137.903 L 227.719 137.854 225.897 138.922 C 223.871 140.109,221.904 142.375,220.981 144.585 C 220.088 146.720,220.056 326.974,220.948 328.699 C 222.392 331.492,226.114 332.906,231.589 332.740 C 237.333 332.567,250.953 332.613,254.800 332.818 C 260.947 333.147,264.435 331.278,265.809 326.921 C 266.495 324.746,266.536 322.722,266.447 294.800 C 266.344 262.149,266.373 261.669,268.545 259.351 C 270.925 256.812,271.105 256.799,303.584 256.810 C 336.989 256.821,336.213 256.741,338.701 260.397 C 340.433 262.942,340.464 263.573,340.472 295.763 C 340.481 329.200,340.562 327.871,338.286 331.454 C 336.072 334.940,321.495 350.057,316.600 353.944 C 315.060 355.166,312.802 357.097,311.582 358.233 C 310.362 359.370,308.652 360.668,307.782 361.119 C 306.912 361.569,305.030 362.935,303.600 364.155 C 302.170 365.375,299.826 367.017,298.391 367.804 C 296.956 368.591,294.706 370.056,293.391 371.059 C 292.076 372.062,289.110 373.811,286.800 374.944 C 284.490 376.077,281.520 377.662,280.200 378.466 C 278.880 379.269,275.978 380.559,273.751 381.332 C 271.525 382.105,268.073 383.567,266.081 384.580 C 263.385 385.952,260.537 386.924,254.930 388.384 C 250.788 389.463,245.803 390.894,243.850 391.564 C 233.668 395.060,205.262 396.472,186.916 394.394 C 178.150 393.401,178.526 393.473,172.200 391.589 C 169.340 390.737,165.110 389.570,162.800 388.996 C 156.494 387.429,154.173 386.644,150.000 384.666 C 147.910 383.675,144.516 382.281,142.458 381.567 C 140.331 380.830,137.222 379.323,135.258 378.076 C 133.356 376.869,130.370 375.270,128.623 374.522 C 126.876 373.774,124.266 372.296,122.823 371.239 C 121.380 370.181,118.941 368.619,117.403 367.769 C 115.865 366.918,113.966 365.644,113.184 364.938 C 112.402 364.231,110.423 362.828,108.788 361.819 C 100.107 356.467,95.200 351.414,95.200 347.827 C 95.200 342.699,96.688 341.894,105.491 342.256 C 112.532 342.546,113.155 342.436,120.600 339.592 C 126.894 337.188,130.469 335.588,132.200 334.401 C 133.080 333.798,135.600 332.400,137.800 331.295 C 140.000 330.190,142.610 328.585,143.600 327.728 C 144.590 326.871,146.311 325.457,147.424 324.585 C 152.297 320.769,159.752 311.629,162.754 305.790 C 163.882 303.595,165.169 301.170,165.614 300.400 C 166.059 299.630,166.794 297.740,167.247 296.200 C 167.700 294.660,168.771 291.240,169.627 288.600 C 175.462 270.606,175.545 248.733,169.835 234.064 C 168.665 231.059,167.490 227.926,167.224 227.102 C 166.957 226.279,165.976 224.479,165.042 223.102 C 164.108 221.726,162.737 219.520,161.995 218.200 C 158.185 211.423,152.092 204.891,131.400 185.396 C 122.147 176.679,115.325 169.743,113.110 166.800 C 112.199 165.590,110.530 163.570,109.400 162.312 C 103.168 155.372,98.840 140.988,100.360 132.263 C 101.096 128.036,100.953 126.584,99.659 125.136 L 98.518 123.859 80.159 123.956 C 51.289 124.108,51.566 124.023,53.173 132.238 C 54.046 136.700,54.070 137.376,53.800 149.939 C 53.453 166.046,53.711 168.082,56.975 175.001 C 58.152 177.496,59.406 180.413,59.761 181.484 C 60.117 182.554,61.059 184.413,61.854 185.615 C 62.650 186.817,64.183 189.216,65.260 190.948 C 69.086 197.094,79.345 207.862,91.602 218.600 C 94.114 220.800,98.131 224.445,100.529 226.700 C 102.928 228.955,105.013 230.800,105.163 230.800 C 105.313 230.800,107.678 233.252,110.418 236.250 C 113.158 239.247,116.604 243.006,118.075 244.603 C 121.953 248.811,122.211 249.846,122.160 261.000 C 122.102 273.581,121.819 274.664,116.601 282.259 C 110.406 291.275,99.278 297.186,85.447 298.807 C 79.684 299.483,61.664 299.352,59.625 298.620 C 55.345 297.083,51.972 293.273,50.577 288.400 C 50.231 287.190,48.899 284.130,47.618 281.600 C 46.299 278.997,44.743 275.113,44.033 272.654 C 43.343 270.264,42.079 266.664,41.224 264.654 C 40.269 262.410,39.333 259.225,38.796 256.400 C 38.316 253.870,37.052 248.200,35.987 243.800 C 32.835 230.778,32.387 226.322,32.173 205.800 C 31.952 184.644,32.691 174.507,35.194 164.400 C 36.711 158.275,37.456 154.354,38.178 148.700 C 39.189 140.781,41.008 135.830,46.371 126.400 C 47.505 124.406,48.460 121.924,49.218 119.000 C 51.191 111.387,51.380 110.948,54.033 107.800 C 54.960 106.700,56.337 104.451,57.093 102.803 C 57.850 101.155,59.234 98.725,60.169 97.403 C 61.105 96.081,62.453 93.843,63.165 92.428 C 63.878 91.014,65.233 88.944,66.176 87.828 C 67.120 86.713,68.388 85.003,68.995 84.030 C 72.697 78.091,87.899 60.564,94.046 55.146 C 95.635 53.746,98.120 51.499,99.568 50.153 C 101.015 48.806,102.967 47.228,103.904 46.645 C 104.842 46.062,106.608 44.680,107.829 43.574 C 109.050 42.468,111.253 40.789,112.724 39.842 C 114.196 38.895,116.202 37.447,117.182 36.623 C 118.162 35.800,120.322 34.443,121.982 33.607 C 123.642 32.771,126.110 31.269,127.468 30.268 C 130.233 28.230,132.238 27.145,134.600 26.410 C 135.480 26.137,138.090 24.861,140.400 23.576 C 143.081 22.085,146.915 20.451,151.000 19.060 C 154.520 17.862,158.930 16.241,160.800 15.459 C 162.856 14.599,165.781 13.779,168.200 13.384 C 170.400 13.025,175.440 12.115,179.400 11.363 C 183.360 10.611,187.590 9.837,188.800 9.644 C 193.649 8.871,223.355 9.140,229.000 10.008 M154.130 64.959 C 153.032 65.903,153.012 66.003,152.775 71.659 C 152.348 81.881,151.376 82.544,137.137 82.326 C 126.494 82.164,125.129 83.225,126.378 90.691 C 126.627 92.181,126.779 95.858,126.715 98.862 C 126.552 106.590,127.771 107.765,134.942 106.795 C 148.954 104.899,153.600 107.010,153.600 115.272 C 153.600 124.130,152.831 123.750,171.432 124.079 C 175.148 124.145,176.460 122.044,176.775 115.528 C 177.033 110.180,177.440 109.298,180.435 107.600 C 182.590 106.379,191.288 105.964,197.414 106.790 C 205.508 107.881,206.059 107.087,206.140 94.195 L 206.200 84.816 204.965 83.581 C 203.412 82.027,201.749 81.650,198.200 82.046 C 181.669 83.892,176.217 81.165,176.486 71.183 C 176.678 64.089,176.525 64.000,164.196 64.000 C 155.328 64.000,155.234 64.009,154.130 64.959 " stroke="none" fill="#047ac3" fill-rule="evenodd"></path><path id="path2" d="M188.800 9.644 C 187.590 9.837,183.360 10.611,179.400 11.363 C 175.440 12.115,170.400 13.025,168.200 13.384 C 165.781 13.779,162.856 14.599,160.800 15.459 C 158.930 16.241,154.520 17.862,151.000 19.060 C 146.915 20.451,143.081 22.085,140.400 23.576 C 138.090 24.861,135.480 26.137,134.600 26.410 C 132.238 27.145,130.233 28.230,127.468 30.268 C 126.110 31.269,123.642 32.771,121.982 33.607 C 120.322 34.443,118.162 35.800,117.182 36.623 C 116.202 37.447,114.196 38.895,112.724 39.842 C 111.253 40.789,109.050 42.468,107.829 43.574 C 106.608 44.680,104.842 46.062,103.904 46.645 C 102.967 47.228,101.015 48.806,99.568 50.153 C 98.120 51.499,95.635 53.746,94.046 55.146 C 87.899 60.564,72.697 78.091,68.995 84.030 C 68.388 85.003,67.120 86.713,66.176 87.828 C 65.233 88.944,63.878 91.014,63.165 92.428 C 62.453 93.843,61.105 96.081,60.169 97.403 C 59.234 98.725,57.850 101.155,57.093 102.803 C 56.337 104.451,54.960 106.700,54.033 107.800 C 51.380 110.948,51.191 111.387,49.218 119.000 C 48.460 121.924,47.505 124.406,46.371 126.400 C 41.008 135.830,39.189 140.781,38.178 148.700 C 37.456 154.354,36.711 158.275,35.194 164.400 C 32.691 174.507,31.952 184.644,32.173 205.800 C 32.387 226.322,32.835 230.778,35.987 243.800 C 37.052 248.200,38.316 253.870,38.796 256.400 C 39.333 259.225,40.269 262.410,41.224 264.654 C 42.079 266.664,43.343 270.264,44.033 272.654 C 44.743 275.113,46.299 278.997,47.618 281.600 C 48.899 284.130,50.231 287.190,50.577 288.400 C 53.138 297.344,56.935 299.275,71.847 299.217 C 86.660 299.160,89.592 298.761,98.226 295.623 C 107.292 292.328,112.070 288.853,116.601 282.259 C 121.819 274.664,122.102 273.581,122.160 261.000 C 122.211 249.846,121.953 248.811,118.075 244.603 C 116.604 243.006,113.158 239.247,110.418 236.250 C 107.678 233.252,105.313 230.800,105.163 230.800 C 105.013 230.800,102.928 228.955,100.529 226.700 C 98.131 224.445,94.114 220.800,91.602 218.600 C 84.452 212.337,80.463 208.545,76.170 203.936 C 69.073 196.315,67.251 194.146,65.260 190.948 C 64.183 189.216,62.650 186.817,61.854 185.615 C 61.059 184.413,60.117 182.554,59.761 181.484 C 59.406 180.413,58.152 177.496,56.975 175.001 C 53.711 168.082,53.453 166.046,53.800 149.939 C 54.070 137.376,54.046 136.700,53.173 132.238 C 51.566 124.023,51.289 124.108,80.159 123.956 L 98.518 123.859 99.659 125.136 C 100.953 126.584,101.096 128.036,100.360 132.263 C 98.840 140.988,103.168 155.372,109.400 162.312 C 110.530 163.570,112.199 165.590,113.110 166.800 C 115.325 169.743,122.147 176.679,131.400 185.396 C 152.092 204.891,158.185 211.423,161.995 218.200 C 162.737 219.520,164.108 221.726,165.042 223.102 C 165.976 224.479,166.957 226.279,167.224 227.102 C 167.490 227.926,168.665 231.059,169.835 234.064 C 175.545 248.733,175.462 270.606,169.627 288.600 C 168.771 291.240,167.700 294.660,167.247 296.200 C 166.794 297.740,166.059 299.630,165.614 300.400 C 165.169 301.170,163.882 303.595,162.754 305.790 C 159.752 311.629,152.297 320.769,147.424 324.585 C 146.311 325.457,144.590 326.871,143.600 327.728 C 142.610 328.585,140.000 330.190,137.800 331.295 C 135.600 332.400,133.080 333.798,132.200 334.401 C 130.469 335.588,126.894 337.188,120.600 339.592 C 113.155 342.436,112.532 342.546,105.491 342.256 C 96.688 341.894,95.200 342.699,95.200 347.827 C 95.200 351.414,100.107 356.467,108.788 361.819 C 110.423 362.828,112.402 364.231,113.184 364.938 C 113.966 365.644,115.865 366.918,117.403 367.769 C 118.941 368.619,121.380 370.181,122.823 371.239 C 124.266 372.296,126.876 373.774,128.623 374.522 C 130.370 375.270,133.356 376.869,135.258 378.076 C 137.222 379.323,140.331 380.830,142.458 381.567 C 144.516 382.281,147.910 383.675,150.000 384.666 C 154.173 386.644,156.494 387.429,162.800 388.996 C 165.110 389.570,169.340 390.737,172.200 391.589 C 189.269 396.673,229.008 396.660,243.850 391.564 C 245.803 390.894,250.788 389.463,254.930 388.384 C 260.537 386.924,263.385 385.952,266.081 384.580 C 268.073 383.567,271.525 382.105,273.751 381.332 C 275.978 380.559,278.880 379.269,280.200 378.466 C 281.520 377.662,284.490 376.077,286.800 374.944 C 289.110 373.811,292.076 372.062,293.391 371.059 C 294.706 370.056,296.956 368.591,298.391 367.804 C 299.826 367.017,302.170 365.375,303.600 364.155 C 305.030 362.935,306.912 361.569,307.782 361.119 C 308.652 360.668,310.362 359.370,311.582 358.233 C 312.802 357.097,315.060 355.166,316.600 353.944 C 321.495 350.057,336.072 334.940,338.286 331.454 C 340.562 327.871,340.481 329.200,340.472 295.763 C 340.464 263.573,340.433 262.942,338.701 260.397 C 336.213 256.741,336.989 256.821,303.584 256.810 C 271.105 256.799,270.925 256.812,268.545 259.351 C 266.373 261.669,266.344 262.149,266.447 294.800 C 266.536 322.722,266.495 324.746,265.809 326.921 C 264.435 331.278,260.947 333.147,254.800 332.818 C 250.953 332.613,237.333 332.567,231.589 332.740 C 226.114 332.906,222.392 331.492,220.948 328.699 C 220.056 326.974,220.088 146.720,220.981 144.585 C 221.904 142.375,223.871 140.109,225.897 138.922 L 227.719 137.854 243.031 137.903 C 255.746 137.943,258.540 138.052,259.497 138.547 C 261.257 139.457,264.332 142.767,265.491 145.000 L 266.529 147.000 266.565 177.200 L 266.600 207.400 267.495 209.074 C 269.608 213.026,268.496 212.909,303.800 212.895 C 336.582 212.881,335.568 212.947,337.911 210.686 C 340.423 208.263,340.436 208.108,340.320 181.000 C 340.262 167.580,340.212 154.525,340.208 151.990 C 340.200 147.560,340.253 147.273,341.541 144.657 C 344.687 138.272,345.555 137.889,356.758 137.952 C 368.489 138.018,370.498 137.381,371.378 133.318 C 371.927 130.782,369.197 122.903,365.874 117.432 C 364.801 115.664,363.107 112.144,362.111 109.609 C 361.114 107.074,359.721 104.280,359.013 103.400 C 358.306 102.520,356.893 100.180,355.873 98.200 C 354.853 96.220,353.107 93.352,351.993 91.827 C 350.880 90.301,349.429 88.040,348.769 86.802 C 348.109 85.564,346.794 83.662,345.847 82.575 C 344.901 81.489,343.617 79.790,342.995 78.800 C 342.373 77.810,340.934 76.010,339.797 74.800 C 338.660 73.590,337.177 71.790,336.503 70.800 C 334.550 67.935,317.819 51.260,312.978 47.354 C 311.646 46.279,309.368 44.410,307.916 43.200 C 306.465 41.990,304.301 40.491,303.108 39.870 C 301.915 39.248,299.741 37.785,298.277 36.618 C 296.813 35.452,294.127 33.731,292.308 32.794 C 290.488 31.857,288.190 30.520,287.200 29.823 C 284.206 27.715,269.874 20.854,265.912 19.632 C 263.870 19.002,260.040 17.598,257.400 16.512 C 251.610 14.131,248.796 13.373,242.953 12.624 C 240.507 12.310,237.537 11.773,236.353 11.430 C 229.345 9.403,197.754 8.217,188.800 9.644 M226.848 12.225 C 230.012 12.568,234.310 13.193,236.400 13.613 C 238.490 14.033,241.945 14.650,244.078 14.985 C 246.211 15.320,248.911 15.975,250.078 16.440 C 251.245 16.905,255.881 18.539,260.381 20.072 C 264.881 21.604,270.101 23.643,271.981 24.603 C 273.861 25.564,276.796 26.918,278.503 27.613 C 280.210 28.309,282.910 29.736,284.503 30.785 C 286.096 31.835,288.840 33.422,290.600 34.311 C 292.360 35.201,295.141 36.950,296.779 38.199 C 298.418 39.447,300.758 40.974,301.979 41.592 C 303.201 42.210,305.010 43.413,306.000 44.265 C 306.990 45.117,308.700 46.525,309.800 47.395 C 317.609 53.569,330.670 66.432,335.725 72.927 C 336.784 74.287,338.243 76.030,338.968 76.800 C 339.692 77.570,340.885 79.100,341.617 80.200 C 342.350 81.300,343.732 83.169,344.688 84.353 C 345.644 85.537,347.170 87.787,348.079 89.353 C 348.988 90.919,350.488 93.190,351.412 94.400 C 352.336 95.610,353.831 98.072,354.735 99.870 C 355.639 101.669,357.072 104.212,357.918 105.522 C 358.765 106.832,360.052 109.500,360.780 111.452 C 361.507 113.403,363.061 116.622,364.233 118.605 C 368.635 126.050,369.769 131.522,367.419 133.978 C 365.724 135.750,364.178 136.014,356.154 135.901 C 345.121 135.745,343.640 136.528,338.925 145.000 L 337.812 147.000 337.806 176.400 L 337.800 205.800 336.714 207.648 C 334.700 211.073,336.659 210.884,303.576 210.845 C 271.485 210.807,272.341 210.871,270.209 208.338 C 268.332 206.107,268.302 205.561,268.449 175.800 C 268.606 144.147,268.750 145.794,265.428 141.281 C 261.468 135.901,259.870 135.526,241.564 135.681 C 224.477 135.825,222.848 136.351,219.712 142.736 L 218.600 145.000 218.600 236.600 L 218.600 328.200 219.496 329.877 C 222.043 334.640,224.653 335.388,239.000 335.461 C 245.600 335.495,252.710 335.576,254.800 335.641 C 265.535 335.974,269.300 329.767,268.654 312.800 C 268.056 297.078,268.255 265.499,268.964 263.815 C 270.994 258.988,269.296 259.217,303.525 259.152 C 336.269 259.091,334.233 258.915,336.299 261.982 C 337.899 264.355,337.955 265.458,338.049 296.429 L 338.141 326.659 336.937 329.229 C 335.143 333.056,320.542 348.697,314.800 352.943 C 313.590 353.838,311.790 355.306,310.800 356.206 C 309.810 357.106,307.560 358.809,305.800 359.989 C 304.040 361.170,301.805 362.829,300.834 363.676 C 299.863 364.523,297.703 365.964,296.034 366.878 C 294.365 367.792,291.944 369.345,290.653 370.330 C 289.361 371.314,286.481 372.922,284.253 373.902 C 282.024 374.883,279.021 376.385,277.579 377.241 C 276.137 378.097,273.437 379.324,271.579 379.968 C 269.721 380.611,265.715 382.151,262.678 383.389 C 238.536 393.234,198.710 396.156,175.352 389.797 C 173.346 389.250,169.926 388.439,167.752 387.993 C 162.366 386.888,157.796 385.456,153.233 383.442 C 151.125 382.511,148.111 381.339,146.535 380.836 C 144.959 380.333,142.349 379.243,140.735 378.413 C 129.537 372.654,126.435 370.982,124.449 369.639 C 123.212 368.802,120.867 367.364,119.237 366.443 C 117.608 365.523,115.448 364.086,114.437 363.250 C 113.427 362.414,111.681 361.236,110.557 360.633 C 107.652 359.072,100.384 353.143,99.209 351.376 C 96.143 346.763,99.181 344.055,106.808 344.601 C 112.662 345.020,116.411 344.179,123.877 340.773 C 127.220 339.248,130.110 338.000,130.301 338.000 C 130.491 338.000,131.716 337.344,133.024 336.542 C 134.331 335.741,137.290 334.020,139.600 332.718 C 141.910 331.416,144.340 329.840,145.000 329.216 C 145.660 328.592,147.370 327.152,148.800 326.018 C 153.182 322.540,160.071 314.391,162.680 309.600 C 163.459 308.170,164.892 305.678,165.864 304.063 C 166.837 302.447,168.408 298.847,169.355 296.063 C 170.303 293.278,171.551 289.711,172.129 288.135 C 177.341 273.935,176.988 243.555,171.483 232.546 C 170.728 231.036,169.881 229.080,169.600 228.200 C 168.929 226.093,166.941 222.106,165.812 220.600 C 165.318 219.940,164.142 218.140,163.200 216.600 C 158.786 209.385,154.597 204.840,136.000 187.087 C 114.070 166.152,108.959 160.123,105.228 150.790 C 102.665 144.378,101.590 137.446,102.341 132.179 C 103.258 125.748,102.639 123.360,99.740 122.149 C 98.431 121.602,72.206 121.579,56.311 122.110 C 50.691 122.298,50.066 116.712,54.941 109.852 C 55.899 108.503,57.462 105.960,58.414 104.200 C 59.367 102.440,60.808 100.010,61.618 98.800 C 62.427 97.590,63.584 95.610,64.188 94.400 C 64.793 93.190,66.226 90.940,67.373 89.400 C 68.519 87.860,70.116 85.610,70.920 84.400 C 77.662 74.258,97.432 53.388,105.400 48.002 C 106.500 47.258,108.390 45.810,109.600 44.782 C 110.810 43.755,112.970 42.134,114.400 41.179 C 115.830 40.224,118.080 38.649,119.400 37.678 C 120.720 36.708,122.880 35.368,124.200 34.701 C 125.520 34.034,127.930 32.591,129.555 31.495 C 131.180 30.399,134.213 28.808,136.295 27.962 C 138.376 27.115,141.546 25.625,143.340 24.651 C 145.133 23.677,148.400 22.304,150.600 21.599 C 152.800 20.895,157.300 19.355,160.600 18.177 C 176.563 12.480,205.369 9.892,226.848 12.225 M154.000 62.701 C 151.840 63.779,151.203 65.482,151.192 70.200 C 151.171 78.853,149.185 80.263,137.924 79.619 C 124.853 78.871,123.950 79.855,124.216 94.558 C 124.480 109.073,124.948 109.557,137.938 108.734 C 149.858 107.980,151.310 108.841,151.704 116.898 C 152.132 125.668,153.234 126.504,164.562 126.650 C 177.023 126.810,178.400 125.899,178.989 117.102 C 179.556 108.628,180.369 108.257,197.200 108.800 C 207.290 109.125,208.179 108.272,208.237 98.200 C 208.258 94.680,208.409 90.687,208.574 89.327 C 209.556 81.190,206.288 78.981,194.198 79.611 C 181.267 80.284,179.244 79.001,178.809 69.847 L 178.584 65.094 177.080 63.795 C 175.090 62.074,174.558 62.000,164.250 62.001 C 156.626 62.001,155.206 62.098,154.000 62.701 M174.153 64.382 C 176.133 65.135,176.612 66.530,176.486 71.183 C 176.217 81.165,181.669 83.892,198.200 82.046 C 201.749 81.650,203.412 82.027,204.965 83.581 L 206.200 84.816 206.140 94.195 C 206.059 107.087,205.508 107.881,197.414 106.790 C 191.288 105.964,182.590 106.379,180.435 107.600 C 177.440 109.298,177.033 110.180,176.775 115.528 C 176.460 122.044,175.148 124.145,171.432 124.079 C 152.831 123.750,153.600 124.130,153.600 115.272 C 153.600 107.010,148.954 104.899,134.942 106.795 C 127.771 107.765,126.552 106.590,126.715 98.862 C 126.779 95.858,126.627 92.181,126.378 90.691 C 125.129 83.225,126.494 82.164,137.137 82.326 C 151.376 82.544,152.348 81.881,152.775 71.659 C 153.114 63.567,152.468 64.000,164.196 64.000 C 169.120 64.000,173.600 64.172,174.153 64.382 M49.916 132.510 C 51.709 134.419,52.142 137.777,51.782 147.000 C 51.167 162.763,52.187 171.083,55.415 176.646 C 55.941 177.552,57.103 179.982,57.998 182.046 C 62.163 191.654,74.574 206.308,89.971 219.800 C 102.496 230.775,110.287 238.529,117.724 247.419 C 120.461 250.691,121.356 259.589,119.974 269.800 C 119.296 274.809,114.926 282.616,110.999 285.835 C 109.948 286.696,108.286 288.081,107.305 288.913 C 101.631 293.726,88.086 296.699,71.159 296.846 C 57.799 296.963,54.653 295.187,51.599 285.800 C 51.098 284.260,49.733 281.110,48.566 278.800 C 47.304 276.301,45.960 272.818,45.247 270.200 C 44.588 267.780,43.339 263.820,42.471 261.400 C 40.868 256.929,40.071 253.485,37.230 238.743 C 34.504 224.597,34.310 221.808,34.512 199.664 C 34.697 179.333,34.738 178.768,36.805 168.200 C 37.451 164.900,38.429 159.050,38.980 155.200 C 40.272 146.167,41.191 142.648,43.456 138.076 C 46.332 132.267,48.186 130.669,49.916 132.510 " stroke="none" fill="#59a7d8" fill-rule="evenodd"></path><path id="path3" d="M190.476 12.041 C 180.155 12.960,168.529 15.347,160.600 18.177 C 157.300 19.355,152.800 20.895,150.600 21.599 C 148.400 22.304,145.133 23.677,143.340 24.651 C 141.546 25.625,138.376 27.115,136.295 27.962 C 134.213 28.808,131.180 30.399,129.555 31.495 C 127.930 32.591,125.520 34.034,124.200 34.701 C 122.880 35.368,120.720 36.708,119.400 37.678 C 118.080 38.649,115.830 40.224,114.400 41.179 C 112.970 42.134,110.810 43.755,109.600 44.782 C 108.390 45.810,106.500 47.258,105.400 48.002 C 97.432 53.388,77.662 74.258,70.920 84.400 C 70.116 85.610,68.519 87.860,67.373 89.400 C 66.226 90.940,64.793 93.190,64.188 94.400 C 63.584 95.610,62.427 97.590,61.618 98.800 C 60.808 100.010,59.367 102.440,58.414 104.200 C 57.462 105.960,55.899 108.503,54.941 109.852 C 50.066 116.712,50.691 122.298,56.311 122.110 C 72.206 121.579,98.431 121.602,99.740 122.149 C 102.639 123.360,103.258 125.748,102.341 132.179 C 101.590 137.446,102.665 144.378,105.228 150.790 C 108.959 160.123,114.070 166.152,136.000 187.087 C 154.597 204.840,158.786 209.385,163.200 216.600 C 164.142 218.140,165.318 219.940,165.812 220.600 C 166.941 222.106,168.929 226.093,169.600 228.200 C 169.881 229.080,170.728 231.036,171.483 232.546 C 176.988 243.555,177.341 273.935,172.129 288.135 C 171.551 289.711,170.303 293.278,169.355 296.063 C 168.408 298.847,166.837 302.447,165.864 304.063 C 164.892 305.678,163.459 308.170,162.680 309.600 C 160.071 314.391,153.182 322.540,148.800 326.018 C 147.370 327.152,145.660 328.592,145.000 329.216 C 144.340 329.840,141.910 331.416,139.600 332.718 C 137.290 334.020,134.331 335.741,133.024 336.542 C 131.716 337.344,130.491 338.000,130.301 338.000 C 130.110 338.000,127.220 339.248,123.877 340.773 C 116.411 344.179,112.662 345.020,106.808 344.601 C 99.181 344.055,96.143 346.763,99.209 351.376 C 100.384 353.143,107.652 359.072,110.557 360.633 C 111.681 361.236,113.427 362.414,114.437 363.250 C 115.448 364.086,117.608 365.523,119.237 366.443 C 120.867 367.364,123.212 368.802,124.449 369.639 C 126.435 370.982,129.537 372.654,140.735 378.413 C 142.349 379.243,144.959 380.333,146.535 380.836 C 148.111 381.339,151.125 382.511,153.233 383.442 C 157.796 385.456,162.366 386.888,167.752 387.993 C 169.926 388.439,173.346 389.250,175.352 389.797 C 198.710 396.156,238.536 393.234,262.678 383.389 C 265.715 382.151,269.721 380.611,271.579 379.968 C 273.437 379.324,276.137 378.097,277.579 377.241 C 279.021 376.385,282.024 374.883,284.253 373.902 C 286.481 372.922,289.361 371.314,290.653 370.330 C 291.944 369.345,294.365 367.792,296.034 366.878 C 297.703 365.964,299.863 364.523,300.834 363.676 C 301.805 362.829,304.040 361.170,305.800 359.989 C 307.560 358.809,309.810 357.106,310.800 356.206 C 311.790 355.306,313.590 353.838,314.800 352.943 C 320.542 348.697,335.143 333.056,336.937 329.229 L 338.141 326.659 338.049 296.429 C 337.955 265.458,337.899 264.355,336.299 261.982 C 334.233 258.915,336.269 259.091,303.525 259.152 C 269.296 259.217,270.994 258.988,268.964 263.815 C 268.255 265.499,268.056 297.078,268.654 312.800 C 269.300 329.767,265.535 335.974,254.800 335.641 C 252.710 335.576,245.600 335.495,239.000 335.461 C 224.653 335.388,222.043 334.640,219.496 329.877 L 218.600 328.200 218.600 236.600 L 218.600 145.000 219.712 142.736 C 222.848 136.351,224.477 135.825,241.564 135.681 C 259.870 135.526,261.468 135.901,265.428 141.281 C 268.750 145.794,268.606 144.147,268.449 175.800 C 268.302 205.561,268.332 206.107,270.209 208.338 C 272.341 210.871,271.485 210.807,303.576 210.845 C 336.659 210.884,334.700 211.073,336.714 207.648 L 337.800 205.800 337.806 176.400 L 337.812 147.000 338.925 145.000 C 343.640 136.528,345.121 135.745,356.154 135.901 C 364.178 136.014,365.724 135.750,367.419 133.978 C 369.769 131.522,368.635 126.050,364.233 118.605 C 363.061 116.622,361.507 113.403,360.780 111.452 C 360.052 109.500,358.765 106.832,357.918 105.522 C 357.072 104.212,355.639 101.669,354.735 99.870 C 353.831 98.072,352.336 95.610,351.412 94.400 C 350.488 93.190,348.988 90.919,348.079 89.353 C 347.170 87.787,345.644 85.537,344.688 84.353 C 343.732 83.169,342.350 81.300,341.617 80.200 C 340.885 79.100,339.692 77.570,338.968 76.800 C 338.243 76.030,336.784 74.287,335.725 72.927 C 330.670 66.432,317.609 53.569,309.800 47.395 C 308.700 46.525,306.990 45.117,306.000 44.265 C 305.010 43.413,303.201 42.210,301.979 41.592 C 300.758 40.974,298.418 39.447,296.779 38.199 C 295.141 36.950,292.360 35.201,290.600 34.311 C 288.840 33.422,286.096 31.835,284.503 30.785 C 282.910 29.736,280.210 28.309,278.503 27.613 C 276.796 26.918,273.861 25.564,271.981 24.603 C 270.101 23.643,264.881 21.604,260.381 20.072 C 255.881 18.539,251.245 16.905,250.078 16.440 C 248.911 15.975,246.211 15.320,244.078 14.985 C 241.945 14.650,238.490 14.033,236.400 13.613 C 227.031 11.730,203.154 10.913,190.476 12.041 M230.000 13.341 C 232.530 13.677,235.860 14.220,237.400 14.547 C 238.940 14.873,241.730 15.347,243.600 15.600 C 245.478 15.854,248.343 16.604,250.000 17.276 C 251.650 17.946,256.289 19.543,260.308 20.827 C 264.383 22.129,269.161 23.966,271.108 24.980 C 273.029 25.980,276.032 27.348,277.782 28.020 C 279.532 28.692,282.279 30.137,283.886 31.232 C 285.493 32.328,288.156 33.838,289.804 34.589 C 291.452 35.340,294.103 36.974,295.695 38.219 C 297.287 39.465,299.591 40.990,300.815 41.608 C 302.040 42.226,304.008 43.512,305.189 44.466 C 306.371 45.420,308.268 46.920,309.406 47.800 C 314.944 52.083,331.890 68.674,334.943 72.800 C 335.838 74.010,337.305 75.810,338.204 76.800 C 339.103 77.790,340.628 79.770,341.591 81.200 C 342.555 82.630,344.134 84.777,345.100 85.971 C 346.066 87.166,347.224 88.876,347.672 89.771 C 348.121 90.667,349.551 92.874,350.850 94.675 C 352.149 96.477,353.740 99.128,354.385 100.567 C 355.031 102.007,356.326 104.313,357.263 105.692 C 358.199 107.071,359.624 110.014,360.429 112.230 C 361.239 114.462,362.811 117.674,363.953 119.430 C 367.216 124.447,368.625 129.872,367.322 132.400 C 365.940 135.079,364.400 135.414,354.200 135.251 C 346.378 135.126,343.889 136.226,340.456 141.323 C 336.653 146.968,337.025 143.208,337.012 176.200 L 337.000 205.400 336.034 207.086 C 334.228 210.239,335.950 210.082,303.425 210.056 C 272.831 210.031,273.145 210.050,271.091 208.091 C 268.960 206.058,268.932 205.615,269.176 178.000 C 269.460 145.774,269.385 145.037,265.321 140.077 C 261.553 135.479,260.484 135.249,242.518 135.161 L 227.636 135.088 225.468 136.149 C 222.592 137.556,219.939 140.447,218.848 143.363 L 217.979 145.686 217.965 236.798 C 217.953 319.694,218.010 328.049,218.596 329.455 C 219.564 331.775,221.324 333.344,224.776 334.964 L 227.888 336.425 243.305 336.468 L 258.723 336.511 261.437 335.241 C 264.994 333.577,266.792 331.645,268.023 328.165 L 269.000 325.400 269.027 295.800 C 269.055 265.397,269.088 264.643,270.460 262.715 C 272.533 259.804,271.146 259.921,303.707 259.915 C 336.757 259.910,333.952 259.621,336.000 263.235 L 337.000 265.000 337.045 289.923 C 337.069 303.631,337.212 316.951,337.362 319.523 C 337.656 324.548,337.265 327.486,335.959 330.068 C 334.496 332.960,319.515 348.570,314.600 352.323 C 313.280 353.331,311.340 354.918,310.289 355.849 C 309.237 356.781,307.167 358.344,305.689 359.322 C 304.210 360.301,301.830 362.043,300.400 363.194 C 298.970 364.344,296.630 365.880,295.200 366.607 C 293.770 367.334,291.520 368.773,290.200 369.806 C 287.494 371.923,285.894 372.798,283.000 373.744 C 281.900 374.104,279.470 375.299,277.600 376.400 C 275.731 377.500,272.761 378.874,271.000 379.453 C 269.240 380.032,265.724 381.367,263.186 382.420 C 256.831 385.056,254.660 385.741,248.200 387.150 C 245.120 387.822,240.980 388.807,239.000 389.338 C 223.796 393.420,192.116 393.430,177.010 389.357 C 175.025 388.822,171.150 387.936,168.400 387.389 C 162.398 386.195,158.130 384.861,153.714 382.799 C 151.906 381.955,149.386 380.965,148.114 380.598 C 144.496 379.557,140.803 377.992,138.533 376.540 C 137.389 375.808,134.587 374.336,132.305 373.268 C 130.024 372.200,126.817 370.418,125.179 369.309 C 123.540 368.200,121.210 366.802,120.000 366.204 C 118.790 365.605,116.953 364.410,115.917 363.548 C 114.881 362.686,112.639 361.156,110.933 360.148 C 96.568 351.655,95.287 345.157,107.996 345.243 C 114.783 345.289,117.541 344.672,123.153 341.855 C 125.489 340.682,128.689 339.235,130.265 338.639 C 131.841 338.044,134.091 336.870,135.265 336.031 C 136.439 335.192,138.660 333.872,140.200 333.097 C 147.263 329.545,159.336 317.234,163.584 309.254 C 164.478 307.574,165.933 305.034,166.816 303.610 C 167.709 302.169,168.969 299.240,169.656 297.010 C 170.336 294.804,171.206 292.370,171.591 291.600 C 174.519 285.738,177.297 265.904,176.634 255.600 C 175.883 243.943,174.619 237.587,171.872 231.647 C 170.690 229.091,169.411 226.149,169.031 225.109 C 168.334 223.200,163.715 215.870,160.915 212.230 C 160.082 211.147,158.567 209.167,157.549 207.830 C 156.530 206.494,152.389 202.160,148.345 198.200 C 140.100 190.124,125.643 176.234,124.708 175.488 C 124.371 175.219,122.410 173.197,120.348 170.993 C 105.059 154.647,102.452 147.935,103.307 127.129 C 103.417 124.451,102.594 123.021,100.285 121.872 C 98.751 121.110,69.375 120.806,59.580 121.452 C 51.970 121.953,50.104 117.494,55.089 110.722 C 56.080 109.376,57.773 106.652,58.850 104.669 C 59.927 102.687,61.233 100.508,61.752 99.828 C 62.271 99.148,63.422 97.145,64.310 95.379 C 65.198 93.612,66.630 91.274,67.490 90.183 C 68.351 89.092,69.908 86.940,70.949 85.400 C 73.379 81.807,77.543 76.453,80.600 72.988 C 85.761 67.140,94.256 58.224,96.536 56.262 C 97.855 55.128,100.040 53.192,101.392 51.960 C 102.744 50.728,104.891 49.054,106.163 48.241 C 107.434 47.428,109.313 45.984,110.337 45.033 C 111.362 44.082,113.550 42.444,115.200 41.393 C 116.850 40.342,118.920 38.909,119.800 38.207 C 120.680 37.505,122.973 36.092,124.896 35.066 C 126.818 34.040,129.537 32.416,130.937 31.457 C 132.338 30.499,134.815 29.211,136.442 28.596 C 138.069 27.981,141.650 26.339,144.400 24.947 C 147.784 23.234,150.864 22.024,153.929 21.202 C 156.421 20.534,160.509 19.177,163.015 18.185 C 168.596 15.978,182.630 13.420,193.400 12.646 C 198.859 12.254,225.650 12.763,230.000 13.341 M155.000 61.610 C 151.783 62.283,150.804 63.970,150.790 68.860 C 150.779 72.906,150.374 74.803,149.137 76.612 C 147.493 79.017,146.989 79.099,135.800 78.783 L 129.400 78.602 127.529 79.701 C 123.449 82.097,123.187 83.092,123.490 95.067 C 123.859 109.702,123.941 109.784,137.800 109.392 C 150.134 109.043,150.728 109.403,151.195 117.512 C 151.716 126.570,152.747 127.347,164.394 127.470 C 177.465 127.608,179.214 126.449,179.768 117.287 C 180.228 109.692,180.755 109.400,194.000 109.400 C 204.717 109.400,205.471 109.293,207.050 107.542 C 208.868 105.527,208.985 104.918,209.120 96.800 C 209.190 92.510,209.271 88.370,209.298 87.600 C 209.537 80.841,206.186 78.594,196.200 78.817 C 181.417 79.148,180.007 78.386,179.602 69.846 C 179.229 61.977,178.353 61.463,165.200 61.401 C 160.250 61.378,155.660 61.472,155.000 61.610 M174.339 62.248 C 175.020 62.384,176.254 63.080,177.080 63.795 L 178.584 65.094 178.809 69.847 C 179.244 79.001,181.267 80.284,194.198 79.611 C 206.288 78.981,209.556 81.190,208.574 89.327 C 208.409 90.687,208.258 94.680,208.237 98.200 C 208.179 108.272,207.290 109.125,197.200 108.800 C 180.369 108.257,179.556 108.628,178.989 117.102 C 178.400 125.899,177.023 126.810,164.562 126.650 C 153.234 126.504,152.132 125.668,151.704 116.898 C 151.310 108.841,149.858 107.980,137.938 108.734 C 124.948 109.557,124.480 109.073,124.216 94.558 C 123.950 79.855,124.853 78.871,137.924 79.619 C 149.185 80.263,151.171 78.853,151.192 70.200 C 151.210 62.442,151.912 62.001,164.250 62.001 C 169.118 62.000,173.657 62.111,174.339 62.248 M46.597 132.976 C 43.062 136.724,40.591 143.932,38.980 155.200 C 38.429 159.050,37.451 164.900,36.805 168.200 C 34.738 178.768,34.697 179.333,34.512 199.664 C 34.310 221.808,34.504 224.597,37.230 238.743 C 40.071 253.485,40.868 256.929,42.471 261.400 C 43.339 263.820,44.588 267.780,45.247 270.200 C 45.960 272.818,47.304 276.301,48.566 278.800 C 49.733 281.110,51.098 284.260,51.599 285.800 C 54.653 295.187,57.799 296.963,71.159 296.846 C 88.086 296.699,101.631 293.726,107.305 288.913 C 108.286 288.081,109.948 286.696,110.999 285.835 C 114.926 282.616,119.296 274.809,119.974 269.800 C 121.356 259.589,120.461 250.691,117.724 247.419 C 110.287 238.529,102.496 230.775,89.971 219.800 C 74.574 206.308,62.163 191.654,57.998 182.046 C 57.103 179.982,55.941 177.552,55.415 176.646 C 52.187 171.083,51.167 162.763,51.782 147.000 C 52.289 134.001,50.414 128.929,46.597 132.976 M50.070 135.421 C 51.361 137.637,51.767 142.277,51.256 148.966 C 50.266 161.916,51.609 171.544,55.290 177.890 C 56.027 179.161,57.240 181.640,57.985 183.400 C 59.197 186.261,61.291 189.608,65.600 195.569 C 69.269 200.644,81.438 213.133,89.990 220.600 C 104.121 232.938,117.309 246.718,118.805 250.708 C 120.232 254.516,120.149 269.376,118.677 273.400 C 117.458 276.735,112.649 283.716,110.174 285.746 C 103.266 291.410,102.772 291.640,93.000 293.756 C 81.604 296.224,63.579 297.073,60.172 295.303 C 55.326 292.786,53.631 290.617,51.807 284.600 C 51.206 282.620,50.021 279.830,49.173 278.400 C 47.385 275.384,46.721 273.626,45.620 268.987 C 45.180 267.137,44.183 263.973,43.405 261.958 C 41.297 256.498,38.804 244.752,35.734 225.800 C 33.877 214.341,34.703 182.863,37.188 170.400 C 37.824 167.210,38.812 161.006,39.384 156.613 C 41.462 140.648,46.870 129.924,50.070 135.421 " stroke="none" fill="#7abce3" fill-rule="evenodd"></path><path id="path4" d="M193.400 12.646 C 182.630 13.420,168.596 15.978,163.015 18.185 C 160.509 19.177,156.421 20.534,153.929 21.202 C 150.864 22.024,147.784 23.234,144.400 24.947 C 141.650 26.339,138.069 27.981,136.442 28.596 C 134.815 29.211,132.338 30.499,130.937 31.457 C 129.537 32.416,126.818 34.040,124.896 35.066 C 122.973 36.092,120.680 37.505,119.800 38.207 C 118.920 38.909,116.850 40.342,115.200 41.393 C 113.550 42.444,111.362 44.082,110.337 45.033 C 109.313 45.984,107.434 47.428,106.163 48.241 C 104.891 49.054,102.744 50.728,101.392 51.960 C 100.040 53.192,97.855 55.128,96.536 56.262 C 94.256 58.224,85.761 67.140,80.600 72.988 C 77.543 76.453,73.379 81.807,70.949 85.400 C 69.908 86.940,68.351 89.092,67.490 90.183 C 66.630 91.274,65.198 93.612,64.310 95.379 C 63.422 97.145,62.271 99.148,61.752 99.828 C 61.233 100.508,59.927 102.687,58.850 104.669 C 57.773 106.652,56.080 109.376,55.089 110.722 C 50.104 117.494,51.970 121.953,59.580 121.452 C 69.375 120.806,98.751 121.110,100.285 121.872 C 102.594 123.021,103.417 124.451,103.307 127.129 C 102.452 147.935,105.059 154.647,120.348 170.993 C 122.410 173.197,124.371 175.219,124.708 175.488 C 125.643 176.234,140.100 190.124,148.345 198.200 C 152.389 202.160,156.530 206.494,157.549 207.830 C 158.567 209.167,160.082 211.147,160.915 212.230 C 163.715 215.870,168.334 223.200,169.031 225.109 C 169.411 226.149,170.690 229.091,171.872 231.647 C 178.216 245.364,178.060 278.649,171.591 291.600 C 171.206 292.370,170.336 294.804,169.656 297.010 C 168.969 299.240,167.709 302.169,166.816 303.610 C 165.933 305.034,164.478 307.574,163.584 309.254 C 159.336 317.234,147.263 329.545,140.200 333.097 C 138.660 333.872,136.439 335.192,135.265 336.031 C 134.091 336.870,131.841 338.044,130.265 338.639 C 128.689 339.235,125.489 340.682,123.153 341.855 C 117.541 344.672,114.783 345.289,107.996 345.243 C 95.287 345.157,96.568 351.655,110.933 360.148 C 112.639 361.156,114.881 362.686,115.917 363.548 C 116.953 364.410,118.790 365.605,120.000 366.204 C 121.210 366.802,123.540 368.200,125.179 369.309 C 126.817 370.418,130.024 372.200,132.305 373.268 C 134.587 374.336,137.389 375.808,138.533 376.540 C 140.803 377.992,144.496 379.557,148.114 380.598 C 149.386 380.965,151.906 381.955,153.714 382.799 C 158.130 384.861,162.398 386.195,168.400 387.389 C 171.150 387.936,175.025 388.822,177.010 389.357 C 192.116 393.430,223.796 393.420,239.000 389.338 C 240.980 388.807,245.120 387.822,248.200 387.150 C 254.660 385.741,256.831 385.056,263.186 382.420 C 265.724 381.367,269.240 380.032,271.000 379.453 C 272.761 378.874,275.731 377.500,277.600 376.400 C 279.470 375.299,281.900 374.104,283.000 373.744 C 285.894 372.798,287.494 371.923,290.200 369.806 C 291.520 368.773,293.770 367.334,295.200 366.607 C 296.630 365.880,298.970 364.344,300.400 363.194 C 301.830 362.043,304.210 360.301,305.689 359.322 C 307.167 358.344,309.237 356.781,310.289 355.849 C 311.340 354.918,313.280 353.331,314.600 352.323 C 319.515 348.570,334.496 332.960,335.959 330.068 C 337.265 327.486,337.656 324.548,337.362 319.523 C 337.212 316.951,337.069 303.631,337.045 289.923 L 337.000 265.000 336.000 263.235 C 333.952 259.621,336.757 259.910,303.707 259.915 C 271.146 259.921,272.533 259.804,270.460 262.715 C 269.088 264.643,269.055 265.397,269.027 295.800 L 269.000 325.400 268.023 328.165 C 266.792 331.645,264.994 333.577,261.437 335.241 L 258.723 336.511 243.305 336.468 L 227.888 336.425 224.776 334.964 C 221.324 333.344,219.564 331.775,218.596 329.455 C 218.010 328.049,217.953 319.694,217.965 236.798 L 217.979 145.686 218.848 143.363 C 219.939 140.447,222.592 137.556,225.468 136.149 L 227.636 135.088 242.518 135.161 C 260.484 135.249,261.553 135.479,265.321 140.077 C 269.385 145.037,269.460 145.774,269.176 178.000 C 268.932 205.615,268.960 206.058,271.091 208.091 C 273.145 210.050,272.831 210.031,303.425 210.056 C 335.950 210.082,334.228 210.239,336.034 207.086 L 337.000 205.400 337.012 176.200 C 337.025 143.208,336.653 146.968,340.456 141.323 C 343.889 136.226,346.378 135.126,354.200 135.251 C 364.400 135.414,365.940 135.079,367.322 132.400 C 368.625 129.872,367.216 124.447,363.953 119.430 C 362.811 117.674,361.239 114.462,360.429 112.230 C 359.624 110.014,358.199 107.071,357.263 105.692 C 356.326 104.313,355.031 102.007,354.385 100.567 C 353.740 99.128,352.149 96.477,350.850 94.675 C 349.551 92.874,348.121 90.667,347.672 89.771 C 347.224 88.876,346.066 87.166,345.100 85.971 C 344.134 84.777,342.555 82.630,341.591 81.200 C 340.628 79.770,339.103 77.790,338.204 76.800 C 337.305 75.810,335.838 74.010,334.943 72.800 C 331.890 68.674,314.944 52.083,309.406 47.800 C 308.268 46.920,306.371 45.420,305.189 44.466 C 304.008 43.512,302.040 42.226,300.815 41.608 C 299.591 40.990,297.287 39.465,295.695 38.219 C 294.103 36.974,291.452 35.340,289.804 34.589 C 288.156 33.838,285.493 32.328,283.886 31.232 C 282.279 30.137,279.532 28.692,277.782 28.020 C 276.032 27.348,273.029 25.980,271.108 24.980 C 269.161 23.966,264.383 22.129,260.308 20.827 C 256.289 19.543,251.650 17.946,250.000 17.276 C 248.343 16.604,245.478 15.854,243.600 15.600 C 241.730 15.347,238.940 14.873,237.400 14.547 C 229.898 12.955,204.419 11.854,193.400 12.646 M228.600 15.207 C 235.303 15.757,245.080 17.780,249.158 19.460 C 251.005 20.221,254.371 21.283,256.639 21.818 C 261.664 23.006,264.982 24.229,268.856 26.321 C 270.475 27.196,273.314 28.406,275.164 29.010 C 277.348 29.723,279.664 30.882,281.764 32.312 C 283.544 33.525,286.453 35.125,288.230 35.869 C 290.164 36.679,292.402 38.018,293.808 39.207 C 295.099 40.299,297.539 41.911,299.229 42.791 C 300.919 43.670,303.179 45.169,304.251 46.122 C 305.323 47.076,307.082 48.455,308.159 49.188 C 310.486 50.770,320.631 60.157,327.477 67.062 C 332.076 71.700,333.260 73.112,339.165 81.000 C 340.482 82.760,342.318 85.178,343.244 86.374 C 344.169 87.570,345.802 89.974,346.872 91.717 C 347.941 93.459,349.428 95.632,350.175 96.544 C 350.923 97.456,352.329 99.915,353.301 102.007 C 354.272 104.100,355.709 106.710,356.495 107.806 C 357.280 108.903,358.507 111.476,359.220 113.525 C 359.934 115.573,361.218 118.363,362.074 119.725 C 368.361 129.724,366.921 134.504,358.040 133.116 C 349.019 131.705,342.804 134.347,337.855 141.695 C 335.000 145.934,335.131 144.261,335.181 175.892 C 335.230 206.401,335.285 205.513,333.264 207.342 C 332.484 208.048,331.124 208.082,303.923 208.076 C 274.387 208.068,274.112 208.053,272.527 206.342 C 270.919 204.608,270.898 204.156,271.207 177.400 C 271.377 162.592,271.354 150.430,271.152 149.147 C 270.016 141.923,265.894 136.286,260.000 133.899 C 257.020 132.692,230.138 132.280,226.872 133.391 C 222.405 134.911,218.340 138.871,216.977 143.031 C 215.772 146.707,215.756 326.524,216.960 329.985 C 217.944 332.813,220.525 335.345,224.459 337.341 L 227.441 338.855 243.279 338.876 L 259.117 338.897 261.258 337.903 C 265.891 335.752,268.244 332.972,269.787 327.825 C 271.485 322.163,271.518 321.340,271.198 293.400 C 270.857 263.665,270.770 264.825,273.457 263.165 C 274.821 262.322,274.990 262.317,303.420 262.316 C 335.081 262.315,333.225 262.159,334.545 264.940 C 335.630 267.228,335.671 326.686,334.589 328.967 C 333.105 332.095,317.264 348.406,312.400 351.815 C 311.190 352.663,309.444 354.037,308.520 354.868 C 307.596 355.700,305.616 357.166,304.120 358.127 C 302.624 359.088,300.410 360.729,299.200 361.773 C 297.990 362.816,295.650 364.358,294.000 365.199 C 292.350 366.041,289.702 367.717,288.117 368.926 C 286.032 370.515,284.314 371.425,281.917 372.213 C 280.092 372.813,277.156 374.167,275.392 375.223 C 273.206 376.531,270.074 377.839,265.564 379.328 C 261.923 380.530,258.049 381.967,256.955 382.521 C 253.466 384.290,249.748 385.125,229.600 388.672 L 221.400 390.115 207.600 390.115 C 195.283 390.115,193.327 390.025,189.400 389.281 C 175.889 386.718,173.382 386.265,169.000 385.588 C 164.343 384.870,163.293 384.525,155.693 381.226 C 154.095 380.532,151.395 379.611,149.693 379.180 C 145.475 378.112,144.733 377.794,140.631 375.289 C 138.668 374.090,136.073 372.769,134.863 372.353 C 132.501 371.540,130.076 370.217,127.200 368.172 C 126.210 367.468,124.050 366.220,122.400 365.399 C 120.750 364.577,118.230 362.957,116.800 361.799 C 115.370 360.640,113.015 359.117,111.567 358.415 C 106.203 355.814,101.186 350.741,101.961 348.703 C 102.492 347.305,103.217 347.128,108.200 347.177 C 115.696 347.250,120.243 346.184,125.214 343.188 C 126.652 342.321,129.577 340.911,131.715 340.054 C 133.852 339.197,136.546 337.786,137.701 336.917 C 138.855 336.048,141.150 334.577,142.800 333.648 C 149.506 329.871,160.572 318.318,164.389 311.107 C 165.352 309.288,166.887 306.699,167.802 305.353 C 168.781 303.911,170.001 301.287,170.771 298.965 C 171.490 296.797,172.575 294.028,173.183 292.812 C 175.402 288.374,175.466 288.058,177.693 270.800 C 179.503 256.765,177.671 238.326,173.770 231.328 C 173.013 229.969,171.596 226.955,170.622 224.631 C 169.600 222.190,168.180 219.601,167.262 218.502 C 166.389 217.456,165.106 215.628,164.412 214.440 C 160.959 208.529,159.489 206.976,127.184 175.101 C 115.124 163.202,109.551 156.193,107.814 150.742 C 105.136 142.338,104.406 135.010,105.582 128.337 C 106.369 123.870,105.213 121.254,101.698 119.548 L 99.800 118.627 80.800 118.745 C 70.350 118.811,60.990 119.015,60.000 119.199 C 54.480 120.227,53.208 117.238,56.715 111.477 C 57.812 109.675,59.112 107.390,59.604 106.400 C 60.095 105.410,61.374 103.410,62.446 101.955 C 63.517 100.501,64.876 98.251,65.466 96.955 C 66.575 94.518,73.641 83.913,75.564 81.800 C 76.165 81.140,76.990 80.060,77.398 79.400 C 77.806 78.740,79.150 77.120,80.385 75.800 C 81.620 74.480,83.279 72.590,84.073 71.600 C 88.319 66.301,102.510 52.809,106.841 49.954 C 108.248 49.026,110.600 47.239,112.067 45.982 C 113.533 44.725,115.783 43.100,117.067 42.369 C 118.350 41.639,120.292 40.341,121.383 39.484 C 122.474 38.627,124.814 37.198,126.583 36.309 C 128.352 35.420,130.790 34.022,132.000 33.202 C 134.922 31.224,137.210 30.085,140.539 28.953 C 142.053 28.438,144.757 27.241,146.546 26.293 C 150.591 24.152,152.316 23.510,157.544 22.201 C 159.823 21.631,163.513 20.471,165.744 19.624 C 170.934 17.654,181.468 15.521,188.200 15.076 C 193.122 14.751,224.278 14.852,228.600 15.207 M153.000 60.165 C 150.078 61.463,149.201 63.548,149.199 69.197 C 149.196 76.213,148.746 76.483,137.280 76.347 C 122.330 76.169,121.012 77.612,121.157 94.000 C 121.307 110.897,122.533 112.152,137.994 111.221 C 148.681 110.578,149.600 111.106,149.600 117.903 C 149.600 128.118,151.452 129.511,165.204 129.642 C 179.013 129.773,181.595 128.039,181.602 118.627 C 181.608 111.665,182.584 110.925,191.400 111.200 C 210.816 111.807,211.123 111.554,211.388 94.758 C 211.664 77.249,210.629 76.113,194.593 76.330 C 182.159 76.499,181.759 76.260,181.439 68.476 C 181.211 62.918,180.098 61.127,176.200 60.048 C 173.787 59.379,154.549 59.476,153.000 60.165 M176.066 62.284 C 178.880 63.552,179.351 64.559,179.602 69.846 C 180.007 78.386,181.417 79.148,196.200 78.817 C 206.186 78.594,209.537 80.841,209.298 87.600 C 209.271 88.370,209.190 92.510,209.120 96.800 C 208.985 104.918,208.868 105.527,207.050 107.542 C 205.471 109.293,204.717 109.400,194.000 109.400 C 180.755 109.400,180.228 109.692,179.768 117.287 C 179.214 126.449,177.465 127.608,164.394 127.470 C 152.747 127.347,151.716 126.570,151.195 117.512 C 150.728 109.403,150.134 109.043,137.800 109.392 C 123.941 109.784,123.859 109.702,123.490 95.067 C 123.187 83.092,123.449 82.097,127.529 79.701 L 129.400 78.602 135.800 78.783 C 146.989 79.099,147.493 79.017,149.137 76.612 C 150.374 74.803,150.779 72.906,150.790 68.860 C 150.801 65.206,151.497 63.099,152.952 62.317 C 155.485 60.955,173.062 60.931,176.066 62.284 M46.419 135.278 C 42.925 138.937,40.876 145.150,39.384 156.613 C 38.812 161.006,37.824 167.210,37.188 170.400 C 34.703 182.863,33.877 214.341,35.734 225.800 C 38.804 244.752,41.297 256.498,43.405 261.958 C 44.183 263.973,45.180 267.137,45.620 268.987 C 46.721 273.626,47.385 275.384,49.173 278.400 C 50.021 279.830,51.206 282.620,51.807 284.600 C 53.631 290.617,55.326 292.786,60.172 295.303 C 63.579 297.073,81.604 296.224,93.000 293.756 C 102.772 291.640,103.266 291.410,110.174 285.746 C 112.649 283.716,117.458 276.735,118.677 273.400 C 120.149 269.376,120.232 254.516,118.805 250.708 C 117.309 246.718,104.121 232.938,89.990 220.600 C 81.438 213.133,69.269 200.644,65.600 195.569 C 61.291 189.608,59.197 186.261,57.985 183.400 C 57.240 181.640,56.027 179.161,55.290 177.890 C 51.609 171.544,50.266 161.916,51.256 148.966 C 52.142 137.372,50.056 131.470,46.419 135.278 M49.243 141.707 C 49.596 142.977,49.609 145.199,49.297 150.600 C 48.856 158.222,48.989 160.330,50.409 168.196 C 51.615 174.875,56.208 185.556,59.930 190.336 C 60.557 191.141,61.848 192.970,62.800 194.400 C 66.481 199.929,78.962 213.151,88.403 221.522 C 103.128 234.580,115.347 247.271,117.362 251.600 C 118.413 253.859,118.427 266.837,117.383 270.962 C 116.617 273.986,112.223 281.724,110.400 283.259 C 107.436 285.755,103.719 288.436,101.845 289.431 C 95.967 292.552,66.109 294.976,60.302 292.804 C 56.477 291.373,54.848 289.106,52.681 282.200 C 52.129 280.440,51.010 277.830,50.194 276.400 C 48.343 273.156,47.774 271.577,46.743 266.825 C 46.293 264.749,45.042 260.442,43.964 257.253 C 41.847 250.993,41.200 248.088,40.204 240.381 C 39.851 237.642,39.128 232.695,38.598 229.389 C 36.258 214.792,36.231 190.121,38.537 175.348 C 39.331 170.260,40.273 163.150,40.629 159.548 C 42.069 145.007,47.205 134.369,49.243 141.707 " stroke="none" fill="#85bce4" fill-rule="evenodd"></path></g></svg>